solid CATIA STL
  facet normal  0.000000e+000  0.000000e+000 -1.000000e+000
    outer loop
      vertex  4.025000e+001 -4.125000e+001  0.000000e+000
      vertex -4.185000e+001 -4.285000e+001  0.000000e+000
      vertex -4.025000e+001 -4.125000e+001  0.000000e+000
    endloop
  endfacet
  facet normal  -0.000000e+000  0.000000e+000 -1.000000e+000
    outer loop
      vertex -4.025000e+001 -4.125000e+001  0.000000e+000
      vertex -4.185000e+001 -4.285000e+001  0.000000e+000
      vertex -4.185000e+001 -3.085000e+001  0.000000e+000
    endloop
  endfacet
  facet normal  2.220448e-015  3.416071e-016 -1.000000e+000
    outer loop
      vertex -4.025000e+001 -4.125000e+001  0.000000e+000
      vertex -4.185000e+001 -3.085000e+001  0.000000e+000
      vertex -4.025000e+001 -3.085000e+001  3.552714e-015
    endloop
  endfacet
  facet normal  0.000000e+000  -0.000000e+000 -1.000000e+000
    outer loop
      vertex -4.185000e+001 -4.285000e+001  0.000000e+000
      vertex  4.025000e+001 -4.125000e+001  0.000000e+000
      vertex  4.185000e+001 -4.285000e+001  0.000000e+000
    endloop
  endfacet
  facet normal  0.000000e+000  0.000000e+000 -1.000000e+000
    outer loop
      vertex  4.185000e+001 -4.285000e+001  0.000000e+000
      vertex  4.025000e+001 -4.125000e+001  0.000000e+000
      vertex  4.025000e+001  4.125000e+001  0.000000e+000
    endloop
  endfacet
  facet normal  0.000000e+000  0.000000e+000 -1.000000e+000
    outer loop
      vertex  4.185000e+001 -4.285000e+001  0.000000e+000
      vertex  4.025000e+001  4.125000e+001  0.000000e+000
      vertex  4.185000e+001  4.285000e+001  0.000000e+000
    endloop
  endfacet
  facet normal  0.000000e+000  0.000000e+000 -1.000000e+000
    outer loop
      vertex  4.185000e+001  4.285000e+001  0.000000e+000
      vertex  4.025000e+001  4.125000e+001  0.000000e+000
      vertex -4.025000e+001  4.125000e+001  0.000000e+000
    endloop
  endfacet
  facet normal  0.000000e+000  0.000000e+000 -1.000000e+000
    outer loop
      vertex  4.185000e+001  4.285000e+001  0.000000e+000
      vertex -4.025000e+001  4.125000e+001  0.000000e+000
      vertex -4.185000e+001  4.285000e+001  0.000000e+000
    endloop
  endfacet
  facet normal -1.020895e-016 -1.020895e-016 -1.000000e+000
    outer loop
      vertex -4.185000e+001  4.285000e+001  0.000000e+000
      vertex -4.025000e+001  4.125000e+001  0.000000e+000
      vertex -4.025000e+001  2.385000e+001  1.776357e-015
    endloop
  endfacet
  facet normal  1.110224e-015  0.000000e+000 -1.000000e+000
    outer loop
      vertex -4.185000e+001  4.285000e+001  0.000000e+000
      vertex -4.025000e+001  2.385000e+001  1.776357e-015
      vertex -4.185000e+001  2.385000e+001  0.000000e+000
    endloop
  endfacet
  facet normal  9.999999e-001  -0.000000e+000  0.000000e+000
    outer loop
      vertex -4.025000e+001  4.125000e+001  7.800000e+001
      vertex -4.025000e+001  2.385000e+001  1.776357e-015
      vertex -4.025000e+001  4.125000e+001  0.000000e+000
    endloop
  endfacet
  facet normal  1.000000e+000  0.000000e+000  0.000000e+000
    outer loop
      vertex -4.025000e+001  2.385000e+001  1.776357e-015
      vertex -4.025000e+001  4.125000e+001  7.800000e+001
      vertex -4.025000e+001  2.385000e+001  7.400000e+000
    endloop
  endfacet
  facet normal  1.000000e+000  0.000000e+000  -0.000000e+000
    outer loop
      vertex -4.025000e+001  2.385000e+001  7.400000e+000
      vertex -4.025000e+001  4.125000e+001  7.800000e+001
      vertex -4.025000e+001 -4.125000e+001  7.800000e+001
    endloop
  endfacet
  facet normal  9.999999e-001  0.000000e+000  0.000000e+000
    outer loop
      vertex -4.025000e+001  2.385000e+001  7.400000e+000
      vertex -4.025000e+001 -4.125000e+001  7.800000e+001
      vertex -4.025000e+001 -3.085000e+001  7.400000e+000
    endloop
  endfacet
  facet normal  9.999999e-001  0.000000e+000  0.000000e+000
    outer loop
      vertex -4.025000e+001 -3.085000e+001  7.400000e+000
      vertex -4.025000e+001 -4.125000e+001  7.800000e+001
      vertex -4.025000e+001 -4.125000e+001  0.000000e+000
    endloop
  endfacet
  facet normal  1.000000e+000  0.000000e+000  0.000000e+000
    outer loop
      vertex -4.025000e+001 -3.085000e+001  7.400000e+000
      vertex -4.025000e+001 -4.125000e+001  0.000000e+000
      vertex -4.025000e+001 -3.085000e+001  3.552714e-015
    endloop
  endfacet
  facet normal -1.000000e+000  0.000000e+000  0.000000e+000
    outer loop
      vertex -4.185000e+001  4.285000e+001  0.000000e+000
      vertex -4.185000e+001  2.385000e+001  0.000000e+000
      vertex -4.185000e+001  4.285000e+001  8.040000e+001
    endloop
  endfacet
  facet normal -1.000000e+000  0.000000e+000  0.000000e+000
    outer loop
      vertex -4.185000e+001  4.285000e+001  8.040000e+001
      vertex -4.185000e+001  2.385000e+001  0.000000e+000
      vertex -4.185000e+001  2.385000e+001  7.400000e+000
    endloop
  endfacet
  facet normal -1.000000e+000  0.000000e+000  0.000000e+000
    outer loop
      vertex -4.185000e+001  4.285000e+001  8.040000e+001
      vertex -4.185000e+001  2.385000e+001  7.400000e+000
      vertex -4.185000e+001 -4.285000e+001  8.040000e+001
    endloop
  endfacet
  facet normal -1.000000e+000  0.000000e+000  0.000000e+000
    outer loop
      vertex -4.185000e+001 -4.285000e+001  8.040000e+001
      vertex -4.185000e+001  2.385000e+001  7.400000e+000
      vertex -4.185000e+001 -3.085000e+001  7.400000e+000
    endloop
  endfacet
  facet normal -1.000000e+000  -0.000000e+000  0.000000e+000
    outer loop
      vertex -4.185000e+001 -4.285000e+001  8.040000e+001
      vertex -4.185000e+001 -3.085000e+001  7.400000e+000
      vertex -4.185000e+001 -4.285000e+001  0.000000e+000
    endloop
  endfacet
  facet normal -1.000000e+000  0.000000e+000  0.000000e+000
    outer loop
      vertex -4.185000e+001 -4.285000e+001  0.000000e+000
      vertex -4.185000e+001 -3.085000e+001  7.400000e+000
      vertex -4.185000e+001 -3.085000e+001  0.000000e+000
    endloop
  endfacet
  facet normal  0.000000e+000 -1.000000e+000  0.000000e+000
    outer loop
      vertex -4.185000e+001  2.385000e+001  7.400000e+000
      vertex -4.185000e+001  2.385000e+001  0.000000e+000
      vertex -4.025000e+001  2.385000e+001  7.400000e+000
    endloop
  endfacet
  facet normal  0.000000e+000 -1.000000e+000  -0.000000e+000
    outer loop
      vertex -4.025000e+001  2.385000e+001  7.400000e+000
      vertex -4.185000e+001  2.385000e+001  0.000000e+000
      vertex -4.025000e+001  2.385000e+001  1.776357e-015
    endloop
  endfacet
  facet normal  0.000000e+000  1.000000e+000  0.000000e+000
    outer loop
      vertex -4.185000e+001 -3.085000e+001  0.000000e+000
      vertex -4.185000e+001 -3.085000e+001  7.400000e+000
      vertex -4.025000e+001 -3.085000e+001  3.552714e-015
    endloop
  endfacet
  facet normal  0.000000e+000  1.000000e+000  -0.000000e+000
    outer loop
      vertex -4.025000e+001 -3.085000e+001  3.552714e-015
      vertex -4.185000e+001 -3.085000e+001  7.400000e+000
      vertex -4.025000e+001 -3.085000e+001  7.400000e+000
    endloop
  endfacet
  facet normal  -0.000000e+000  0.000000e+000 -1.000000e+000
    outer loop
      vertex -4.185000e+001  2.385000e+001  7.400000e+000
      vertex -4.025000e+001  2.385000e+001  7.400000e+000
      vertex -4.185000e+001 -3.085000e+001  7.400000e+000
    endloop
  endfacet
  facet normal  0.000000e+000  0.000000e+000 -1.000000e+000
    outer loop
      vertex -4.185000e+001 -3.085000e+001  7.400000e+000
      vertex -4.025000e+001  2.385000e+001  7.400000e+000
      vertex -4.025000e+001 -3.085000e+001  7.400000e+000
    endloop
  endfacet
  facet normal  0.000000e+000  0.000000e+000  1.000000e+000
    outer loop
      vertex -4.185000e+001 -4.285000e+001  8.040000e+001
      vertex  4.185000e+001 -4.285000e+001  8.040000e+001
      vertex -4.185000e+001  4.285000e+001  8.040000e+001
    endloop
  endfacet
  facet normal  -0.000000e+000  0.000000e+000  1.000000e+000
    outer loop
      vertex -4.185000e+001  4.285000e+001  8.040000e+001
      vertex  4.185000e+001 -4.285000e+001  8.040000e+001
      vertex  4.185000e+001  4.285000e+001  8.040000e+001
    endloop
  endfacet
  facet normal  0.000000e+000  1.000000e+000  0.000000e+000
    outer loop
      vertex -4.185000e+001  4.285000e+001  8.040000e+001
      vertex  4.185000e+001  4.285000e+001  8.040000e+001
      vertex -4.185000e+001  4.285000e+001  0.000000e+000
    endloop
  endfacet
  facet normal  0.000000e+000  1.000000e+000  0.000000e+000
    outer loop
      vertex -4.185000e+001  4.285000e+001  0.000000e+000
      vertex  4.185000e+001  4.285000e+001  8.040000e+001
      vertex  4.185000e+001  4.285000e+001  0.000000e+000
    endloop
  endfacet
  facet normal  0.000000e+000 -1.000000e+000  0.000000e+000
    outer loop
      vertex  4.185000e+001 -4.285000e+001  8.040000e+001
      vertex -4.185000e+001 -4.285000e+001  8.040000e+001
      vertex  4.185000e+001 -4.285000e+001  0.000000e+000
    endloop
  endfacet
  facet normal  0.000000e+000 -1.000000e+000  0.000000e+000
    outer loop
      vertex  4.185000e+001 -4.285000e+001  0.000000e+000
      vertex -4.185000e+001 -4.285000e+001  8.040000e+001
      vertex -4.185000e+001 -4.285000e+001  0.000000e+000
    endloop
  endfacet
  facet normal  1.000000e+000  0.000000e+000  0.000000e+000
    outer loop
      vertex  4.185000e+001 -4.285000e+001  8.040000e+001
      vertex  4.185000e+001 -4.285000e+001  0.000000e+000
      vertex  4.185000e+001  4.285000e+001  8.040000e+001
    endloop
  endfacet
  facet normal  1.000000e+000  0.000000e+000  0.000000e+000
    outer loop
      vertex  4.185000e+001  4.285000e+001  8.040000e+001
      vertex  4.185000e+001 -4.285000e+001  0.000000e+000
      vertex  4.185000e+001  4.285000e+001  0.000000e+000
    endloop
  endfacet
  facet normal  0.000000e+000  0.000000e+000 -1.000000e+000
    outer loop
      vertex -4.025000e+001 -4.125000e+001  7.800000e+001
      vertex -4.025000e+001  4.125000e+001  7.800000e+001
      vertex  4.025000e+001 -4.125000e+001  7.800000e+001
    endloop
  endfacet
  facet normal  0.000000e+000  0.000000e+000 -1.000000e+000
    outer loop
      vertex  4.025000e+001 -4.125000e+001  7.800000e+001
      vertex -4.025000e+001  4.125000e+001  7.800000e+001
      vertex  4.025000e+001  4.125000e+001  7.800000e+001
    endloop
  endfacet
  facet normal  0.000000e+000  1.000000e+000  -0.000000e+000
    outer loop
      vertex  4.025000e+001 -4.125000e+001  7.800000e+001
      vertex  4.025000e+001 -4.125000e+001  0.000000e+000
      vertex -4.025000e+001 -4.125000e+001  7.800000e+001
    endloop
  endfacet
  facet normal  0.000000e+000  1.000000e+000  0.000000e+000
    outer loop
      vertex -4.025000e+001 -4.125000e+001  7.800000e+001
      vertex  4.025000e+001 -4.125000e+001  0.000000e+000
      vertex -4.025000e+001 -4.125000e+001  0.000000e+000
    endloop
  endfacet
  facet normal -9.999999e-001  -0.000000e+000  0.000000e+000
    outer loop
      vertex  4.025000e+001 -4.125000e+001  7.800000e+001
      vertex  4.025000e+001  4.125000e+001  7.800000e+001
      vertex  4.025000e+001 -4.125000e+001  0.000000e+000
    endloop
  endfacet
  facet normal -9.999999e-001  0.000000e+000  0.000000e+000
    outer loop
      vertex  4.025000e+001 -4.125000e+001  0.000000e+000
      vertex  4.025000e+001  4.125000e+001  7.800000e+001
      vertex  4.025000e+001  4.125000e+001  0.000000e+000
    endloop
  endfacet
  facet normal  0.000000e+000 -1.000000e+000  0.000000e+000
    outer loop
      vertex -4.025000e+001  4.125000e+001  7.800000e+001
      vertex -4.025000e+001  4.125000e+001  0.000000e+000
      vertex  4.025000e+001  4.125000e+001  7.800000e+001
    endloop
  endfacet
  facet normal  0.000000e+000 -1.000000e+000  -0.000000e+000
    outer loop
      vertex  4.025000e+001  4.125000e+001  7.800000e+001
      vertex -4.025000e+001  4.125000e+001  0.000000e+000
      vertex  4.025000e+001  4.125000e+001  0.000000e+000
    endloop
  endfacet
endsolid CATIA STL
